<?xml version="1.0" standalone="no"?>
<!DOCTYPE svg PUBLIC "-//W3C//DTD SVG 20010904//EN"
 "http://www.w3.org/TR/2001/REC-SVG-20010904/DTD/svg10.dtd">
<svg version="1.0" xmlns="http://www.w3.org/2000/svg"
 width="700.000000pt" height="700.000000pt" viewBox="0 0 700.000000 700.000000"
 preserveAspectRatio="xMidYMid meet">
<metadata>
Created by potrace 1.11, written by Peter Selinger 2001-2013
</metadata>
<g transform="translate(0.000000,700.000000) scale(0.100000,-0.100000)"
fill="#000000" stroke="none">
<path d="M3328 6604 c-2 -1 -39 -5 -83 -8 -69 -5 -122 -11 -262 -31 -16 -2
-62 -11 -103 -20 -263 -56 -467 -123 -675 -221 -44 -20 -82 -38 -85 -38 -11
-3 -187 -101 -264 -148 -75 -46 -268 -183 -298 -211 -7 -7 -40 -34 -73 -61
-76 -62 -298 -285 -350 -351 -22 -27 -46 -57 -54 -65 -54 -56 -209 -284 -286
-420 -114 -200 -255 -542 -290 -699 -2 -9 -10 -41 -18 -71 -13 -46 -35 -148
-51 -235 -3 -18 -12 -77 -21 -145 -19 -143 -25 -472 -12 -635 61 -733 373
-1408 892 -1931 352 -355 774 -616 1240 -767 120 -39 324 -92 395 -103 76 -11
83 -12 155 -23 123 -18 246 -25 415 -25 288 0 470 22 795 99 11 3 72 21 135
41 613 192 1136 561 1553 1094 35 44 180 266 219 335 44 78 158 308 158 319 0
4 9 25 19 49 61 136 153 449 177 602 3 22 8 43 9 46 2 3 7 37 10 75 4 38 8 71
10 74 17 28 25 464 12 621 -7 81 -31 263 -42 319 -22 109 -29 144 -47 210 -94
362 -274 745 -482 1030 -146 201 -358 430 -517 560 -51 41 -97 80 -103 85 -15
15 -171 125 -226 159 -25 16 -57 37 -72 48 -15 10 -29 18 -31 18 -2 0 -52 27
-111 60 -59 33 -113 60 -120 60 -7 0 -16 4 -21 9 -16 15 -212 95 -325 134
-174 58 -362 105 -517 127 -37 5 -84 12 -103 14 -103 15 -541 31 -552 20z"/>
</g>
</svg>
